<svg xmlns="http://www.w3.org/2000/svg" xmlns:xlink="http://www.w3.org/1999/xlink" width="200" height="200"><defs><pattern id="doodad" width="40" height="40" patternTransform="rotate(135)" patternUnits="userSpaceOnUse" viewBox="0 0 40 40"><rect width="100%" height="100%" fill="rgba(0, 0, 0,1)"/><path fill="rgba(78, 24, 24,1)" d="M-20 31l20-20l20 20l20-20l20 20l20-20l20 20v-2l-20-20l-20 20l-20-20l-20 20l-20-20l-20 20zM-20-9l20-20l20 20l20-20l20 20l20-20l20 20v-2l-20-20l-20 20l-20-20l-20 20l-20-20l-20 20zM-20 71l20-20l20 20l20-20l20 20l20-20l20 20v-2l-20-20l-20 20l-20-20l-20 20l-20-20l-20 20z"/><path fill="rgba(236, 0, 75,0.33)" d="M20.5 0l20 20l-20 20l20 20l-20 20l20 20l-20 20h-1l20-20l-20-20l20-20l-20-20l20-20l-20-20zM-19.5 0l20 20l-20 20l20 20l-20 20l20 20l-20 20h-1l20-20l-20-20l20-20l-20-20l20-20l-20-20zM60.5 0l20 20l-20 20l20 20l-20 20l20 20l-20 20h-1l20-20l-20-20l20-20l-20-20l20-20l-20-20z"/></pattern></defs><rect width="200%" height="200%" fill="url(#doodad)"/></svg>