<?xml version="1.0" standalone="no"?>
<svg xmlns="http://www.w3.org/2000/svg" xmlns:xlink="http://www.w3.org/1999/xlink" height="200px" width="200px">
  <defs>
    <pattern id="doodad" width="40" height="40" viewBox="0 0 40 40" patternUnits="userSpaceOnUse" patternTransform="rotate(135)">
      <rect width="100%" height="100%" fill="rgba(0, 0, 0,1)"/>
      <path d="M-20 31l20-20l20 20l20-20l20 20l20-20l20 20v-2l-20-20l-20 20l-20-20l-20 20l-20-20l-20 20zM-20-9l20-20l20 20l20-20l20 20l20-20l20 20v-2l-20-20l-20 20l-20-20l-20 20l-20-20l-20 20zM-20 71l20-20l20 20l20-20l20 20l20-20l20 20v-2l-20-20l-20 20l-20-20l-20 20l-20-20l-20 20z " fill="rgba(78, 24, 24,1)"/>
      <path d="M20.5 0l20 20l-20 20l20 20l-20 20l20 20l-20 20h-1l20-20l-20-20l20-20l-20-20l20-20l-20-20zM-19.5 0l20 20l-20 20l20 20l-20 20l20 20l-20 20h-1l20-20l-20-20l20-20l-20-20l20-20l-20-20zM60.5 0l20 20l-20 20l20 20l-20 20l20 20l-20 20h-1l20-20l-20-20l20-20l-20-20l20-20l-20-20z " fill="rgba(236, 0, 75,0.33)"/>
    </pattern>
  </defs>
  <rect fill="url(#doodad)" height="200%" width="200%"/>
</svg>
